<?xml version="1.0" standalone="no"?><!DOCTYPE svg PUBLIC "-//W3C//DTD SVG 1.1//EN" "http://www.w3.org/Graphics/SVG/1.1/DTD/svg11.dtd"><svg t="1691674594976" class="icon" viewBox="0 0 1024 1024" version="1.1" xmlns="http://www.w3.org/2000/svg" p-id="2102" xmlns:xlink="http://www.w3.org/1999/xlink" width="200" height="200"><path d="M640 64c-17.066667 0-32 14.933333-32 32S622.933333 128 640 128c157.866667 0 288 130.133333 288 288 0 17.066667 14.933333 32 32 32s32-14.933333 32-32C992 221.866667 834.133333 64 640 64z" fill="#1296db" p-id="2103"></path><path d="M768 416c0 17.066667 14.933333 32 32 32s32-14.933333 32-32c0-106.666667-85.333333-192-192-192-17.066667 0-32 14.933333-32 32s14.933333 32 32 32c70.4 0 128 57.6 128 128zM473.6 232.533333c-6.4-6.4-14.933333-8.533333-23.466667-8.533333-8.533333 0-17.066667 4.266667-23.466666 8.533333L142.933333 518.4c-4.266667 2.133333-6.4 4.266667-8.533333 8.533333L42.666667 618.666667c-12.8 12.8-12.8 32 0 44.8 12.8 12.8 32 12.8 44.8 0l40.533333-42.666667V960c0 17.066667 14.933333 32 32 32h576c17.066667 0 32-14.933333 32-32V620.8l40.533333 42.666667c6.4 6.4 14.933333 8.533333 23.466667 8.533333 8.533333 0 17.066667-2.133333 23.466667-8.533333 12.8-12.8 12.8-32 0-44.8L473.6 232.533333zM384 928v-192h128v192h-128z m320 0h-128V704c0-17.066667-14.933333-32-32-32h-192c-17.066667 0-32 14.933333-32 32v224H192V558.933333l258.133333-256 253.866667 256v369.066667z" fill="#1296db" p-id="2104"></path></svg>